# Blender 4.3.2
# www.blender.org
mtllib Pin.mtl
o wings.121
v 4.406476 0.292563 -0.358701
v 4.403665 0.374119 0.112017
v 4.408835 -0.097960 -0.525886
v -4.405779 0.399462 -0.222898
v -4.403387 -0.018457 -0.395097
v -4.408566 0.471720 0.260786
v -4.408708 0.085896 0.517647
v -4.406403 -0.305436 0.341151
v 4.403518 -0.007748 0.365396
v 4.405844 -0.367376 0.198925
v 4.408377 -0.454700 -0.206148
v -4.403852 -0.372065 -0.087185
vn 0.0074 0.7152 -0.6989
vn 0.0604 0.7901 -0.6100
vn 0.0725 0.9329 0.3529
vn 0.0134 0.8957 0.4444
vn 1.0000 0.0036 0.0055
vn -0.0072 -0.0532 -0.9986
vn -0.0169 -0.0779 -0.9968
vn -0.9978 -0.0535 0.0382
vn -0.9993 0.0252 0.0286
vn -0.9999 0.0061 -0.0145
vn -1.0000 -0.0063 -0.0076
vn -0.9978 -0.0662 0.0005
vn -0.9988 -0.0430 0.0251
vn 0.0196 0.0870 0.9960
vn 0.0168 0.0326 0.9993
vn 0.0193 -0.7824 0.6225
vn 0.0042 -0.7903 0.6127
vn 0.0261 -0.9336 -0.3574
vn -0.0194 -0.9654 -0.2599
vt 0.585431 1.949902
vt 0.585431 1.299980
vt 0.506726 1.299980
vt 0.506726 1.949902
vt 0.854212 0.491120
vt 0.920834 0.471888
vt 0.920834 0.433424
vt 0.854212 0.414192
vt 0.787590 0.433424
vt 0.787590 0.471888
vt 0.180589 1.949902
vt 0.180589 1.299980
vt 0.101632 1.299980
vt 0.101632 1.949902
vt 0.049539 0.093779
vt 0.000014 0.045097
vt 0.053073 0.001567
vt 0.153555 0.000014
vt 0.213412 0.045027
vt 0.156056 0.093779
vt 0.425391 1.299980
vt 0.425391 1.949902
vt 0.343946 1.299980
vt 0.343946 1.949902
vt 0.261562 1.299980
vt 0.261562 1.949902
s 1
f 1/1/1 4/2/2 6/3/3 2/4/4
f 1/5/5 2/6/5 9/7/5 10/8/5 11/9/5 3/10/5
f 3/11/6 5/12/7 4/13/2 1/14/1
f 5/15/8 12/16/9 8/17/10 7/18/11 6/19/12 4/20/13
f 2/4/4 6/3/3 7/21/14 9/22/15
f 7/21/14 8/23/16 10/24/17 9/22/15
f 10/24/17 8/23/16 12/25/18 11/26/19
f 12/25/18 5/12/7 3/11/6 11/26/19
